<svg width="17" height="17" viewBox="0 0 17 17" fill="none" xmlns="http://www.w3.org/2000/svg">
<path d="M7.5 8C7.77614 8 8 7.77614 8 7.5V6C8 5.72386 8.22386 5.5 8.5 5.5C8.77614 5.5 9 5.72386 9 6V7.5C9 7.77614 9.22386 8 9.5 8H11C11.2761 8 11.5 8.22386 11.5 8.5C11.5 8.77614 11.2761 9 11 9H9.5C9.22386 9 9 9.22386 9 9.5V11C9 11.2761 8.77614 11.5 8.5 11.5C8.22386 11.5 8 11.2761 8 11V9.5C8 9.22386 7.77614 9 7.5 9H6C5.72386 9 5.5 8.77614 5.5 8.5C5.5 8.22386 5.72386 8 6 8H7.5Z" fill="#8C8C8C"/>
<circle cx="8.5" cy="8.5" r="8" stroke="#8C8C8C" stroke-linecap="round" stroke-dasharray="2 2"/>
</svg>
