<svg width="18" height="17" viewBox="0 0 18 17" fill="none" xmlns="http://www.w3.org/2000/svg">
<path d="M7.93725 0.908783C8.30406 0.165537 9.36391 0.165537 9.73072 0.908783L11.5402 4.57527C11.6859 4.87041 11.9675 5.07498 12.2932 5.12231L16.3394 5.71026C17.1596 5.82944 17.4871 6.83742 16.8936 7.41595L13.9657 10.2699C13.73 10.4997 13.6225 10.8307 13.6781 11.155L14.3693 15.1849C14.5094 16.0018 13.652 16.6248 12.9184 16.2391L9.29933 14.3364C9.008 14.1833 8.65997 14.1833 8.36864 14.3364L4.7496 16.2391C4.01598 16.6248 3.15854 16.0018 3.29865 15.1849L3.98983 11.155C4.04547 10.8307 3.93792 10.4997 3.70223 10.2699L0.774369 7.41595C0.180852 6.83742 0.508362 5.82944 1.32858 5.71026L5.37479 5.12231C5.7005 5.07498 5.98207 4.87041 6.12773 4.57527L7.93725 0.908783Z" stroke="#8C8C8C" stroke-linecap="round" stroke-linejoin="round" stroke-dasharray="2 2"/>
</svg>
