<svg width="66" height="66" viewBox="0 0 66 66" fill="none" xmlns="http://www.w3.org/2000/svg">
<circle cx="33" cy="33" r="33" fill="#C7E8DC"/>
<path d="M41.1797 16C43.872 16.0001 46.0546 18.1833 46.0547 20.876C46.0547 22.5163 46.1907 24.3737 47.2627 25.6152C50.2142 29.0329 52 33.487 52 38.3574C51.9997 49.1279 43.2692 50.0107 32.5 50.0107C21.7308 50.0107 13.0003 49.1279 13 38.3574C13.0001 27.5865 21.7306 18.8546 32.5 18.8545C34.8428 18.8544 37.1371 17.2823 39.2979 16.377C39.8768 16.1344 40.5127 16 41.1797 16ZM30.8086 33.7275C32.0451 35.348 35.6789 38.1805 40.2754 36.3057L39.9922 35.6113L39.709 34.916C36.0046 36.4271 33.0317 34.1669 32.002 32.8174L30.8086 33.7275ZM24.2871 32.4238C22.8489 33.9945 21.258 34.4455 19.8486 34.4014C18.4066 34.3561 17.1321 33.7885 16.4229 33.2939L15.5645 34.5244C16.4724 35.1575 18.0233 35.8455 19.8008 35.9014C21.6111 35.9581 23.6364 35.3555 25.3936 33.4365L24.2871 32.4238Z" fill="white"/>
<path d="M8.93521 31.3011C8.64686 31.241 8.45951 31.1489 8.37316 31.0249C8.28756 30.8942 8.25202 30.7659 8.26653 30.6401C8.2757 30.5606 8.30257 30.4731 8.34714 30.3776C8.39171 30.2821 8.43284 30.2164 8.47054 30.1804C8.82611 29.8322 9.48682 29.2239 10.4527 28.3555C11.4185 27.4871 12.0659 26.9075 12.3947 26.6166L12.0096 26.552C11.6608 26.4917 11.3673 26.4478 11.1289 26.4203C11.0428 26.4103 10.8223 26.4017 10.4675 26.3943C10.2451 26.4022 10.0445 26.3959 9.86569 26.3752C9.60741 26.3454 9.42133 26.3005 9.30747 26.2404C9.20099 26.1744 9.13832 26.1068 9.11947 26.0375C9.10724 25.969 9.108 25.8751 9.12175 25.7559C9.13168 25.6698 9.17472 25.5876 9.25088 25.5091C9.33442 25.4248 9.42663 25.3817 9.5275 25.3799C9.79623 25.3774 10.154 25.3884 10.6008 25.4131C11.0483 25.4312 11.4112 25.4562 11.6893 25.4883C12.5304 25.5853 13.1182 25.6967 13.4526 25.8226C13.5357 25.859 13.6009 25.9336 13.6483 26.0464C13.6957 26.1593 13.7159 26.2455 13.709 26.3051C13.6999 26.3846 13.6771 26.4658 13.6407 26.5489C13.6109 26.6327 13.5727 26.7021 13.526 26.7571C13.4224 26.8995 13.1916 27.1548 12.8338 27.5228C12.4767 27.8843 12.0993 28.2468 11.7017 28.6103C11.2804 29.0046 10.8496 29.3945 10.4092 29.7799C9.97543 30.1661 9.69538 30.4123 9.56904 30.5185C9.75524 30.5333 10.0419 30.5496 10.4291 30.5674C11.0562 30.5995 11.5254 30.6334 11.8367 30.6693C12.0817 30.6976 12.3514 30.7455 12.6456 30.813C12.9464 30.8812 13.1672 30.9738 13.3081 31.0907C13.3514 31.1225 13.3857 31.2037 13.4109 31.3341C13.4427 31.4652 13.4541 31.5706 13.4449 31.65C13.435 31.7361 13.3832 31.8073 13.2894 31.8636C13.2023 31.9207 13.0859 31.9408 12.9402 31.924C12.927 31.9225 12.7828 31.8924 12.5077 31.8339C11.9391 31.7012 11.5622 31.6242 11.3767 31.6028L10.6703 31.5314C10.3508 31.508 10.1083 31.4867 9.94277 31.4676C9.53878 31.421 9.20292 31.3655 8.93521 31.3011Z" fill="white"/>
<path d="M7.10982 17.8869C6.7878 17.6293 6.61214 17.3957 6.58283 17.1862C6.55866 16.9688 6.59547 16.7862 6.69325 16.6382C6.755 16.5448 6.84394 16.4526 6.96007 16.3615C7.07619 16.2704 7.16916 16.2144 7.23897 16.1934C7.90341 15.9837 9.11352 15.6423 10.8693 15.1694C12.6251 14.6964 13.8004 14.3824 14.3951 14.2273L13.9551 13.9029C13.5578 13.6068 13.2191 13.3661 12.9387 13.1808C12.8375 13.1139 12.5677 12.9636 12.1293 12.7297C11.8466 12.5989 11.6002 12.4639 11.3899 12.325C11.0863 12.1243 10.8824 11.9504 10.7782 11.8032C10.687 11.6535 10.6516 11.5293 10.6719 11.4309C10.7 11.3376 10.7604 11.2209 10.853 11.0807C10.9199 10.9795 11.0257 10.904 11.1705 10.8542C11.3282 10.8018 11.4706 10.8064 11.5977 10.8681C11.9349 11.035 12.3746 11.2753 12.9169 11.5889C13.4643 11.8948 13.9015 12.1558 14.2285 12.3719C15.2174 13.0255 15.8808 13.5367 16.2188 13.9055C16.2995 14.0035 16.3337 14.138 16.3214 14.3089C16.3091 14.4798 16.2798 14.6003 16.2335 14.6704C16.1718 14.7638 16.0919 14.8508 15.9938 14.9315C15.9036 15.0173 15.8119 15.0798 15.7189 15.119C15.4993 15.2311 15.0496 15.4038 14.3697 15.6369C13.695 15.8622 12.9943 16.076 12.2677 16.2782C11.492 16.5039 10.7072 16.718 9.91332 16.9205C9.12721 17.1281 8.62166 17.2583 8.39666 17.311C8.61982 17.4473 8.9675 17.6491 9.4397 17.9164C10.2025 18.3534 10.7669 18.6929 11.1328 18.9348C11.4209 19.1252 11.7273 19.3556 12.052 19.6261C12.3844 19.9018 12.6016 20.1572 12.7035 20.3924C12.7374 20.4595 12.7288 20.5825 12.6778 20.7613C12.6345 20.9453 12.582 21.084 12.5202 21.1774C12.4533 21.2787 12.3435 21.3348 12.1908 21.3457C12.0459 21.3618 11.8878 21.3133 11.7165 21.2001C11.701 21.1898 11.54 21.061 11.2335 20.8137C10.6076 20.2881 10.1856 19.9533 9.96756 19.8092L9.13059 19.2728C8.74655 19.0414 8.4572 18.8613 8.26254 18.7326C7.78757 18.4187 7.40333 18.1368 7.10982 17.8869Z" fill="white"/>
</svg>
