<svg width="28" height="24" viewBox="0 0 28 24" fill="none" xmlns="http://www.w3.org/2000/svg">
<path d="M7.47723 9.33427C7.48126 9.33449 7.5476 9.33884 7.66163 9.48534C7.77483 9.63088 7.89443 9.8684 7.99693 10.2023C8.20063 10.866 8.30708 11.8066 8.24937 12.86C8.19165 13.9134 7.98307 14.8365 7.7081 15.4737C7.56975 15.7942 7.42492 16.017 7.29651 16.1492C7.16714 16.2822 7.10076 16.2792 7.09673 16.2789C7.09181 16.2786 7.02559 16.2734 6.91233 16.1279C6.79913 15.9823 6.6805 15.7448 6.57801 15.411C6.37427 14.7472 6.26687 13.8067 6.32459 12.7532C6.38232 11.6996 6.5918 10.7767 6.86683 10.1396C7.00518 9.81906 7.14904 9.59615 7.27745 9.46402C7.4059 9.33192 7.47232 9.33401 7.47723 9.33427Z" fill="#9CD710" stroke="#9AD513"/>
<path d="M17.0148 17.4566L13.5391 13.0312L17.937 9.53392L18.806 10.6402L18.2562 11.0774L17.9813 11.296L15.5075 13.2632L18.1143 16.5822L17.8394 16.8008L17.0148 17.4566Z" fill="#9AD513"/>
<path d="M19.7451 1C21.0734 1 22.1611 2.0853 22.1611 3.4375C22.1611 4.57045 22.2308 6.24264 23.252 7.43359C25.1682 9.66783 26.3271 12.5776 26.3271 15.7627C26.3271 17.5285 25.9722 18.7977 25.4014 19.7275C24.8348 20.6505 24.0064 21.3189 22.917 21.8057C20.6693 22.8101 17.4681 22.9795 13.6631 22.9795C9.85829 22.9795 6.65775 22.81 4.41016 21.8057C3.32078 21.3189 2.49235 20.6504 1.92578 19.7275C1.35497 18.7977 1 17.5285 1 15.7627C1.00006 8.71499 6.67542 3.01295 13.6631 3.0127C14.6969 3.0127 15.6641 2.66702 16.498 2.29395C16.9187 2.10576 17.3332 1.89715 17.7148 1.70703C18.1052 1.51257 18.4637 1.33639 18.8096 1.18945C19.0961 1.06779 19.4115 1.00005 19.7451 1Z" stroke="#9AD513" stroke-width="2"/>
</svg>
