<svg width="27" height="22" viewBox="0 0 27 22" fill="none" xmlns="http://www.w3.org/2000/svg">
<path d="M19.3174 1C20.6658 1.00019 21.6592 2.01856 21.6592 3.1543C21.6592 4.1945 21.7248 5.77502 22.749 6.89453C24.615 8.93338 25.7344 11.5778 25.7344 14.4619C25.7343 16.0599 25.3917 17.1987 24.8467 18.0312C24.3034 18.861 23.5025 19.4725 22.4326 19.9209C20.2283 20.8446 17.0895 21 13.3672 21L11.999 20.9912C8.87458 20.9489 6.23046 20.7291 4.30176 19.9209C3.23183 19.4725 2.43096 18.861 1.8877 18.0312C1.34263 17.1987 1.00005 16.0599 1 14.4619L1.00391 14.165C1.17133 7.93805 6.5892 2.84673 13.3672 2.84668C14.3715 2.84664 15.3145 2.53005 16.1318 2.18652C16.5433 2.01359 16.9497 1.82174 17.3232 1.64746C17.7052 1.46926 18.0558 1.30775 18.3945 1.17383C18.6758 1.06264 18.9875 1.00001 19.3174 1Z" stroke="white" stroke-width="2"/>
<path d="M21.2512 12.8478L14.4023 10.9961C14.2466 12.3225 14.8526 13.5811 16.9073 14.1366C19.1903 14.7538 20.4106 13.989 21.2512 12.8478Z" fill="white" stroke="white" stroke-width="1.5"/>
<path d="M8.39952 10.9979L3.42578 12.6172C3.97676 13.6167 4.94808 14.2436 6.4402 13.7578C8.09812 13.2181 8.45313 12.1594 8.39952 10.9979Z" fill="white" stroke="white" stroke-width="1.5"/>
</svg>
