<svg width="28" height="24" viewBox="0 0 28 24" fill="none" xmlns="http://www.w3.org/2000/svg">
<path d="M8.65692 9.54911C8.66095 9.54933 8.72728 9.55369 8.84131 9.70018C8.95451 9.84572 9.07412 10.0832 9.17662 10.4171C9.38031 11.0809 9.48677 12.0214 9.42905 13.0748C9.37134 14.1283 9.16276 15.0514 8.88779 15.6885C8.74944 16.009 8.60461 16.2319 8.4762 16.364C8.34683 16.497 8.28044 16.494 8.27642 16.4938C8.2715 16.4935 8.20528 16.4883 8.09202 16.3427C7.97882 16.1972 7.86019 15.9597 7.75769 15.6258C7.55396 14.9621 7.44656 14.0216 7.50428 12.968C7.56201 11.9145 7.77149 10.9916 8.04652 10.3544C8.18487 10.0339 8.32873 9.811 8.45714 9.67887C8.58559 9.54676 8.65201 9.54885 8.65692 9.54911Z" fill="#FFAA4A" stroke="#FFAA4A"/>
<path d="M15.4147 9.54911C15.4188 9.54933 15.4851 9.55369 15.5991 9.70018C15.7123 9.84572 15.8319 10.0832 15.9344 10.4171C16.1381 11.0809 16.2446 12.0214 16.1869 13.0748C16.1291 14.1283 15.9206 15.0514 15.6456 15.6885C15.5073 16.009 15.3624 16.2319 15.234 16.364C15.1046 16.497 15.0383 16.494 15.0342 16.4938C15.0293 16.4935 14.9631 16.4883 14.8498 16.3427C14.7366 16.1972 14.618 15.9597 14.5155 15.6258C14.3118 14.9621 14.2044 14.0216 14.2621 12.968C14.3198 11.9145 14.5293 10.9916 14.8043 10.3544C14.9427 10.0339 15.0865 9.811 15.215 9.67887C15.3434 9.54676 15.4098 9.54885 15.4147 9.54911Z" fill="#FFAA4A" stroke="#FFAA4A"/>
<path d="M19.7451 1C21.0734 1 22.1611 2.0853 22.1611 3.4375C22.1611 4.57045 22.2308 6.24264 23.252 7.43359C25.1682 9.66783 26.3271 12.5776 26.3271 15.7627C26.3271 17.5285 25.9722 18.7977 25.4014 19.7275C24.8348 20.6505 24.0064 21.3189 22.917 21.8057C20.6693 22.8101 17.4681 22.9795 13.6631 22.9795C9.85829 22.9795 6.65775 22.81 4.41016 21.8057C3.32078 21.3189 2.49235 20.6504 1.92578 19.7275C1.35497 18.7977 1 17.5285 1 15.7627C1.00006 8.71499 6.67542 3.01295 13.6631 3.0127C14.6969 3.0127 15.6641 2.66702 16.498 2.29395C16.9187 2.10576 17.3332 1.89715 17.7148 1.70703C18.1052 1.51257 18.4637 1.33639 18.8096 1.18945C19.0961 1.06779 19.4115 1.00005 19.7451 1Z" stroke="#FFAA4A" stroke-width="2"/>
</svg>
